<svg xmlns="http://www.w3.org/2000/svg" viewBox="0 0 1062.85 157"><defs><style>.a,.b{fill:#4669f7;}.b{opacity:0.78;}</style></defs><path class="a" d="M303.27,37.53a37.26,37.26,0,0,1,8.68.93,33.43,33.43,0,0,1,6.75,2.33,21.47,21.47,0,0,1,4.72,3,16.16,16.16,0,0,1,2.79,3l.78-3.56a4.93,4.93,0,0,1,1.78-3A4.87,4.87,0,0,1,332,39.08h11.78a3.33,3.33,0,0,1,2.71,1.24,3.51,3.51,0,0,1,.7,3L331.79,115.5a4.93,4.93,0,0,1-1.78,2.94,4.82,4.82,0,0,1-3.18,1.24H315.05a3.29,3.29,0,0,1-2.71-1.24,3.45,3.45,0,0,1-.7-2.94l.78-3.57A38.05,38.05,0,0,1,309,115.5a16.84,16.84,0,0,1-4.65,2.94,32.12,32.12,0,0,1-6.59,2,47.48,47.48,0,0,1-9.22.77,26.88,26.88,0,0,1-13-3.1,27.51,27.51,0,0,1-9.46-8.29A34.54,34.54,0,0,1,260.34,84c.31-1.55.67-3.35,1.08-5.42s.83-3.88,1.24-5.43a64.5,64.5,0,0,1,5.27-13.64,43.56,43.56,0,0,1,8.53-11.39,39.51,39.51,0,0,1,11.78-7.75A37.68,37.68,0,0,1,303.27,37.53ZM282.5,75a34.12,34.12,0,0,0-1.16,4.34c-.26,1.35-.49,2.79-.7,4.34a24.17,24.17,0,0,0,.24,8.53,13.6,13.6,0,0,0,2.86,5.89,11.72,11.72,0,0,0,5.12,3.41,20.58,20.58,0,0,0,6.82,1.08,22.62,22.62,0,0,0,13.72-4.49,24.56,24.56,0,0,0,8.75-12.87,48.61,48.61,0,0,0,1.48-5.89c.46-2.37.79-4.34,1-5.89q.93-8.05-3.25-12.71T305.6,56.13a23.25,23.25,0,0,0-13.8,4.42Q285.61,65,282.5,75Z"/><path class="a" d="M367,113.64,351.79,44.35A3.75,3.75,0,0,1,353,40.63a5.16,5.16,0,0,1,3.64-1.55h11q3.56,0,4.34,3.72l10.23,47.28L412.7,42.8a10,10,0,0,1,2.4-2.48,5.71,5.71,0,0,1,3.49-1.24h12.87a3,3,0,0,1,3.1,1.71,3.78,3.78,0,0,1-.31,3.87L369,145.88a7.76,7.76,0,0,1-2.25,2.25,5.76,5.76,0,0,1-3.33,1h-13a3.22,3.22,0,0,1-3.1-1.78,3.27,3.27,0,0,1,.16-3.49Z"/><path class="b" d="M563.36,113.64,548.17,44.35a3.77,3.77,0,0,1,1.16-3.72A5.18,5.18,0,0,1,553,39.08h11q3.56,0,4.34,3.72l10.23,47.28L609.08,42.8a9.92,9.92,0,0,1,2.41-2.48A5.66,5.66,0,0,1,615,39.08h12.87a3,3,0,0,1,3.1,1.71,3.76,3.76,0,0,1-.31,3.87L565.37,145.88a7.72,7.72,0,0,1-2.24,2.25,5.81,5.81,0,0,1-3.34,1h-13a3.23,3.23,0,0,1-3.1-1.78,3.27,3.27,0,0,1,.16-3.49Z"/><path class="a" d="M730.14,43.27a4.79,4.79,0,0,1,1.86-3,5.15,5.15,0,0,1,3.25-1.24H747a3.12,3.12,0,0,1,2.64,1.24,3.66,3.66,0,0,1,.62,3l-8.37,39.37q-2,9.3.77,14.88t11.78,5.58a18.49,18.49,0,0,0,13.72-5.58q5.5-5.58,7.52-14.88l8.37-39.37a4.79,4.79,0,0,1,1.86-3,5.15,5.15,0,0,1,3.25-1.24H801a3.12,3.12,0,0,1,2.64,1.24,3.66,3.66,0,0,1,.62,3L788.88,115.5a4.93,4.93,0,0,1-1.78,2.94,4.82,4.82,0,0,1-3.18,1.24H772.14a3.29,3.29,0,0,1-2.71-1.24,3.45,3.45,0,0,1-.7-2.94l.78-3.57a26.16,26.16,0,0,1-8.45,6.82q-4.89,2.49-13.56,2.48a30.28,30.28,0,0,1-14-2.94,22.48,22.48,0,0,1-8.92-7.91,27.78,27.78,0,0,1-4-11.54A41.41,41.41,0,0,1,721.3,85Z"/><path class="a" d="M845.61,37.53a37.26,37.26,0,0,1,8.68.93A33.11,33.11,0,0,1,861,40.79a21.56,21.56,0,0,1,4.73,3,16.16,16.16,0,0,1,2.79,3l7.13-33a5,5,0,0,1,1.78-3,4.87,4.87,0,0,1,3.18-1.24h11.78a3.32,3.32,0,0,1,2.71,1.24,3.47,3.47,0,0,1,.7,3L874.13,115.5a4.93,4.93,0,0,1-1.78,2.94,4.82,4.82,0,0,1-3.18,1.24H857.39a3.29,3.29,0,0,1-2.71-1.24,3.45,3.45,0,0,1-.7-2.94l.78-3.57a28.75,28.75,0,0,1-3.34,3.41,20.53,20.53,0,0,1-4.65,3,27.56,27.56,0,0,1-6.58,2.09,48.81,48.81,0,0,1-9.3.77,26.07,26.07,0,0,1-12.95-3.17,29.44,29.44,0,0,1-9.45-8.37,32.13,32.13,0,0,1-5.35-11.94,34.74,34.74,0,0,1-.31-13.87q.46-2.32,1.09-5.43T805.16,73a62.32,62.32,0,0,1,5.27-13.56,44.89,44.89,0,0,1,8.44-11.32,38.56,38.56,0,0,1,11.71-7.75A37.68,37.68,0,0,1,845.61,37.53ZM824.84,75a34.12,34.12,0,0,0-1.16,4.34c-.26,1.35-.49,2.79-.7,4.34a24.2,24.2,0,0,0,.23,8.53,13.72,13.72,0,0,0,2.87,5.89,11.72,11.72,0,0,0,5.12,3.41,20.58,20.58,0,0,0,6.82,1.08,22.57,22.57,0,0,0,13.71-4.49,24.57,24.57,0,0,0,8.76-12.87A47,47,0,0,0,862,79.38c.47-2.37.8-4.34,1-5.89q.93-8.05-3.25-12.71t-11.78-4.65a23.25,23.25,0,0,0-13.8,4.42Q827.95,65,824.84,75Z"/><path class="a" d="M931,37.53a37.32,37.32,0,0,1,8.68.93,33.32,33.32,0,0,1,6.74,2.33,21.56,21.56,0,0,1,4.73,3,16.16,16.16,0,0,1,2.79,3l7.13-33a4.88,4.88,0,0,1,1.78-3,4.87,4.87,0,0,1,3.18-1.24h11.78a3.33,3.33,0,0,1,2.71,1.24,3.51,3.51,0,0,1,.7,3L959.54,115.5a4.94,4.94,0,0,1-1.79,2.94,4.82,4.82,0,0,1-3.17,1.24H942.8a3.31,3.31,0,0,1-2.72-1.24,3.44,3.44,0,0,1-.69-2.94l.77-3.57a28.63,28.63,0,0,1-3.33,3.41,20.53,20.53,0,0,1-4.65,3,27.64,27.64,0,0,1-6.59,2.09,48.66,48.66,0,0,1-9.3.77,26,26,0,0,1-12.94-3.17,29.48,29.48,0,0,1-9.46-8.37,32.11,32.11,0,0,1-5.34-11.94,34.56,34.56,0,0,1-.31-13.87l1.08-5.43c.41-2.06.83-3.87,1.24-5.42a62.83,62.83,0,0,1,5.27-13.56,44.93,44.93,0,0,1,8.45-11.32A38.51,38.51,0,0,1,916,40.4,37.73,37.73,0,0,1,931,37.53ZM910.25,75a34.26,34.26,0,0,0-1.17,4.34c-.26,1.35-.49,2.79-.69,4.34a24,24,0,0,0,.23,8.53,13.5,13.5,0,0,0,2.87,5.89,11.68,11.68,0,0,0,5.11,3.41,20.62,20.62,0,0,0,6.82,1.08,22.62,22.62,0,0,0,13.72-4.49,24.57,24.57,0,0,0,8.76-12.87,50.78,50.78,0,0,0,1.47-5.89c.46-2.37.8-4.34,1-5.89q.93-8.05-3.26-12.71t-11.78-4.65a23.25,23.25,0,0,0-13.79,4.42Q913.34,65,910.25,75Z"/><path class="a" d="M994.87,113.64,979.68,44.35a3.76,3.76,0,0,1,1.17-3.72,5.16,5.16,0,0,1,3.64-1.55h11c2.37,0,3.82,1.24,4.33,3.72l10.24,47.28L1040.6,42.8a10,10,0,0,1,2.4-2.48,5.71,5.71,0,0,1,3.49-1.24h12.86a3,3,0,0,1,3.11,1.71,3.76,3.76,0,0,1-.32,3.87L996.89,145.88a7.88,7.88,0,0,1-2.25,2.25,5.76,5.76,0,0,1-3.33,1h-13a3.22,3.22,0,0,1-3.1-1.78,3.28,3.28,0,0,1,.15-3.49Z"/><path class="a" d="M267.24,31A23.19,23.19,0,0,0,260.8,20.1a29.74,29.74,0,0,0-11.7-6.67,51.88,51.88,0,0,0-15.73-2.25H203.8l-16.52,9.54L167,115.5a3.41,3.41,0,0,0,.7,2.94,3.29,3.29,0,0,0,2.71,1.24H183a4.82,4.82,0,0,0,3.17-1.24A4.94,4.94,0,0,0,188,115.5l7.43-34.57h26.36a63.37,63.37,0,0,0,18.13-2.32,38.7,38.7,0,0,0,13.25-6.74A33.41,33.41,0,0,0,262,60.94a61.87,61.87,0,0,0,5.19-15Q269,37.38,267.24,31Zm-21,15q-1.84,8.84-7.9,12.25t-14.88,3.41h-24l6.67-31h24q8.83,0,13.41,3.33T246.23,45.9Z"/><path class="b" d="M547.16,12.42a3.32,3.32,0,0,0-2.71-1.24H531.89A6.77,6.77,0,0,0,527,12.89c-1.19,1.14-2,2-2.55,2.48l-40,51.3-17.68-51.3a10,10,0,0,0-1.54-2.56,4.43,4.43,0,0,0-3-1.54l-17.32,10L424.79,115.5a3.41,3.41,0,0,0,.7,2.94,3.29,3.29,0,0,0,2.71,1.24h12.56a4.82,4.82,0,0,0,3.17-1.24,4.94,4.94,0,0,0,1.79-2.94l12.86-60.61,12.09,34.88a9.21,9.21,0,0,0,1.55,2.56,4,4,0,0,0,3.26,1.31h9.3a6.41,6.41,0,0,0,3.87-1.24,13.35,13.35,0,0,0,2.79-2.63l27-34.88L505.54,115.5a3.48,3.48,0,0,0,.7,2.94,3.31,3.31,0,0,0,2.72,1.24h12.55a4.84,4.84,0,0,0,3.18-1.24,4.93,4.93,0,0,0,1.78-2.94L547.86,15.37A3.47,3.47,0,0,0,547.16,12.42Z"/><path class="a" d="M721.61,32.5a22.75,22.75,0,0,0-4.18-10.23,26.51,26.51,0,0,0-9.61-7.91q-6.21-3.18-16.12-3.18H659.08L641.26,21.47l-20.09,94a3.45,3.45,0,0,0,.7,2.94,3.29,3.29,0,0,0,2.71,1.24h49.29a43.67,43.67,0,0,0,16.28-2.79,39.11,39.11,0,0,0,11.85-7.2,35.79,35.79,0,0,0,7.83-10.08A45.26,45.26,0,0,0,714,88.06a30.45,30.45,0,0,0,.62-8.37A24.31,24.31,0,0,0,713.16,73a19.83,19.83,0,0,0-2.94-5.27,28.6,28.6,0,0,0-3.8-4,19.41,19.41,0,0,0,3.33-2.33,40,40,0,0,0,4.42-4.26,32.36,32.36,0,0,0,4.34-6.2,28.72,28.72,0,0,0,3-8.29A30.08,30.08,0,0,0,721.61,32.5ZM693.25,87.13a15.8,15.8,0,0,1-6,9.54q-4.72,3.64-13.25,3.64H645.35l5.58-26.51h28.68q8.21,0,11.54,3.72C693.38,80,694.07,83.21,693.25,87.13Zm7.28-44.64q-2.32,11.94-18,11.94H655.12l5.11-23.87h27.44q8.05,0,11.08,3T700.53,42.49Z"/><path class="a" d="M146.82,31.88a32.7,32.7,0,0,0-6-14.68A37.9,37.9,0,0,0,127,5.85q-8.89-4.54-23.13-4.56H58l43.79,58.24L7,130.78,2.68,151a4.94,4.94,0,0,0,1,4.23A4.74,4.74,0,0,0,7.57,157H78.31q13.34,0,23.35-4a56,56,0,0,0,17-10.35,51.26,51.26,0,0,0,11.23-14.46,64.58,64.58,0,0,0,6-16.57,43.56,43.56,0,0,0,.89-12,35.08,35.08,0,0,0-2.11-9.67,28.87,28.87,0,0,0-4.23-7.57A39.81,39.81,0,0,0,125,76.7a27.89,27.89,0,0,0,4.78-3.34,59.87,59.87,0,0,0,6.34-6.11,47.09,47.09,0,0,0,6.23-8.9,41,41,0,0,0,4.23-11.9A43.34,43.34,0,0,0,146.82,31.88Z"/><polygon class="b" points="24.44 14.77 0 129.16 94.36 58.21 50.59 0 50.01 0 24.44 14.77"/></svg>